<svg width="41" height="38" viewBox="0 0 41 38" fill="none" xmlns="http://www.w3.org/2000/svg">
<g id="Frame">
<path id="Vector 6" d="M28.5053 21.8258C26.8453 20.0457 22.6949 20.2075 20.4261 20.2076C19.0612 20.0997 15.7557 20.0997 13.4537 20.9627C10.5762 22.0415 11.5169 25.8713 12.3469 28.2986C13.177 30.7259 16.0545 34.4478 20.4261 34.5557C24.7978 34.6636 26.4025 31.6969 27.8412 30.0247C29.28 28.3526 30.1654 23.6058 28.5053 21.8258Z" fill="#DAE8FF"/>
<ellipse id="Ellipse 1" cx="20.537" cy="16.5108" rx="3.88543" ry="3.61964" fill="#DAE8FF"/>
<path id="Vector 5" d="M26.2373 7.98202C25.546 6.0033 22.6941 4.79895 20.4472 4.79895C19.5542 4.79895 17.3362 5.26351 15.6078 7.12176C13.4474 9.44456 14.2251 11.9394 14.83 12.4556C15.4349 12.9718 18.8053 12.8858 20.4472 12.8858C22.0892 12.8858 25.2003 12.8858 26.2373 12.4556C27.2744 12.0255 26.9286 9.96074 26.2373 7.98202Z" fill="#DAE8FF"/>
<path id="Vector 7" d="M20.5046 12.9369V4.90491H22.0972C24.6592 5.37742 26.8058 8.00971 26.875 10.5071C26.9442 13.0044 25.5594 12.532 22.0972 12.9369C22.9281 12.9369 24.313 15.2318 24.3822 16.9867C24.4376 18.3907 22.882 19.7316 22.0972 20.2266C23.8745 20.2266 27.7059 20.6045 28.8138 22.1165C30.1987 24.0064 29.6447 25.2213 27.8444 29.6761C26.4041 33.2399 22.3511 34.3558 20.5046 34.4683V20.2266V12.9369Z" fill="#93BBFB"/>
<path id="Vector" d="M20.4998 20.1875C22.4609 20.1875 24.3914 20.3142 26.2791 20.5627C28.0506 20.7939 29.4668 22.0922 29.4668 23.75C29.4668 29.6527 25.4522 34.4375 20.4981 34.4375C15.5439 34.4375 11.531 29.6527 11.531 23.75C11.531 22.0938 12.9489 20.7939 14.7188 20.5627C16.6339 20.3125 18.5657 20.1871 20.4998 20.1875ZM20.4998 20.1875C25.4249 20.1875 30.1467 20.9918 34.5201 22.4675C34.3138 25.7312 33.6523 28.9563 32.5521 32.0625M20.4998 20.1875C15.5747 20.1875 10.8528 20.9918 6.47778 22.4675C6.69132 25.7988 7.36612 29.0162 8.44749 32.0625M20.4998 20.1875C21.0196 20.1876 21.534 20.09 22.0119 19.9005C22.4898 19.7111 22.9213 19.4338 23.2803 19.0854C23.6393 18.737 23.9183 18.3247 24.1004 17.8735C24.2826 17.4223 24.3641 16.9416 24.3401 16.4603C24.2944 15.5449 23.8698 14.681 23.1546 14.0481C22.4394 13.4153 21.4886 13.0623 20.4998 13.0625M20.4998 20.1875C19.98 20.1876 19.4656 20.09 18.9877 19.9005C18.5098 19.7111 18.0783 19.4338 17.7193 19.0854C17.3603 18.737 17.0813 18.3247 16.8991 17.8735C16.717 17.4223 16.6354 16.9416 16.6594 16.4603M16.6594 16.4603C16.7052 15.5449 17.1297 14.681 17.845 14.0481C18.5602 13.4153 19.511 13.0623 20.4998 13.0625M16.6594 16.4603C13.5725 16.1943 10.5863 15.6117 7.73682 14.7472C7.82868 12.9858 8.05244 11.2326 8.40649 9.5M20.4998 13.0625C22.1996 13.0625 23.8669 12.9358 25.4915 12.6888C26.18 12.5843 26.7557 12.122 26.8497 11.4823C27.0247 10.2581 26.7866 9.01365 26.168 7.91983M20.4998 13.0625C18.8 13.0625 17.1344 12.9358 15.508 12.6888C14.8213 12.5843 14.2439 12.122 14.1499 11.4823C13.9693 10.2563 14.2083 9.00858 14.8332 7.91508M13.8407 3.56408C13.3214 4.39533 12.9797 5.33266 12.8601 6.33016C13.4425 6.93443 14.1056 7.46755 14.8332 7.91666C15.3771 6.96024 16.1923 6.15958 17.1911 5.60106C18.1898 5.04255 19.3342 4.74737 20.5006 4.74737C21.6671 4.74737 22.8114 5.04255 23.8102 5.60106C24.8089 6.15958 25.6242 6.96024 26.168 7.91666C26.8975 7.46858 27.5603 6.935 28.1412 6.33491C28.0252 5.35703 27.6907 4.41228 27.1589 3.56091M32.5948 9.5C32.945 11.21 33.1705 12.9627 33.2644 14.7472C30.3686 15.6252 27.3757 16.1999 24.3418 16.4603" stroke="black" stroke-width="1.10132" stroke-linecap="round" stroke-linejoin="round"/>
</g>
</svg>
