<svg width="1440" height="687" viewBox="0 0 1440 687" fill="none" xmlns="http://www.w3.org/2000/svg">
<g clip-path="url(#clip0_402_321)">
<mask id="mask0_402_321" style="mask-type:luminance" maskUnits="userSpaceOnUse" x="-1" y="0" width="1441" height="1133">
<path d="M1439.37 0H-0.470398V1132.67H1439.37V0Z" fill="white"/>
</mask>
<g mask="url(#mask0_402_321)">
<path d="M-125.148 281.346L-0.248986 74.1543L124.066 281.346L-0.248986 354.884L-125.148 281.346Z" stroke="#DAE8FF" stroke-width="1.08145" stroke-linecap="round" stroke-linejoin="round"/>
<path d="M-0.248986 380.565L-125.148 304.108L-0.248986 481.534L124.066 304.108L-0.248986 380.565Z" stroke="#DAE8FF" stroke-width="1.08145" stroke-linecap="round" stroke-linejoin="round"/>
<path d="M-125.148 846.733L-0.248986 639.541L124.066 846.733L-0.248986 920.272L-125.148 846.733Z" stroke="#DAE8FF" stroke-width="1.08145" stroke-linecap="round" stroke-linejoin="round"/>
<path d="M162.84 281.346L287.737 74.1543L412.053 281.346L287.737 354.884L162.84 281.346Z" stroke="#DAE8FF" stroke-width="1.08145" stroke-linecap="round" stroke-linejoin="round"/>
<path d="M287.737 380.565L162.84 304.108L287.737 481.534L412.053 304.108L287.737 380.565Z" stroke="#DAE8FF" stroke-width="1.08145" stroke-linecap="round" stroke-linejoin="round"/>
<path d="M162.84 846.733L287.737 639.541L412.053 846.733L287.737 920.272L162.84 846.733Z" stroke="#DAE8FF" stroke-width="1.08145" stroke-linecap="round" stroke-linejoin="round"/>
<path d="M450.826 281.346L575.724 74.1543L700.039 281.346L575.724 354.884L450.826 281.346Z" stroke="#DAE8FF" stroke-width="1.08145" stroke-linecap="round" stroke-linejoin="round"/>
<path d="M575.724 380.565L450.826 304.108L575.724 481.534L700.039 304.108L575.724 380.565Z" stroke="#DAE8FF" stroke-width="1.08145" stroke-linecap="round" stroke-linejoin="round"/>
<path d="M450.826 846.733L575.724 639.541L700.039 846.733L575.724 920.272L450.826 846.733Z" stroke="#DAE8FF" stroke-width="1.08145" stroke-linecap="round" stroke-linejoin="round"/>
<path d="M738.523 281.346L863.422 74.1543L987.737 281.346L863.422 354.884L738.523 281.346Z" stroke="#DAE8FF" stroke-width="1.08145" stroke-linecap="round" stroke-linejoin="round"/>
<path d="M863.422 380.565L738.523 304.108L863.422 481.534L987.737 304.108L863.422 380.565Z" stroke="#DAE8FF" stroke-width="1.08145" stroke-linecap="round" stroke-linejoin="round"/>
<path d="M738.523 846.734L863.422 639.542L987.737 846.734L863.422 920.272L738.523 846.734Z" stroke="#DAE8FF" stroke-width="1.08145" stroke-linecap="round" stroke-linejoin="round"/>
<path d="M1026.51 281.346L1151.4 74.1543L1275.72 281.346L1151.4 354.884L1026.51 281.346Z" stroke="#DAE8FF" stroke-width="1.08145" stroke-linecap="round" stroke-linejoin="round"/>
<path d="M1151.4 380.565L1026.51 304.108L1151.4 481.534L1275.72 304.108L1151.4 380.565Z" stroke="#DAE8FF" stroke-width="1.08145" stroke-linecap="round" stroke-linejoin="round"/>
<path d="M1026.51 846.733L1151.4 639.541L1275.72 846.733L1151.4 920.272L1026.51 846.733Z" stroke="#DAE8FF" stroke-width="1.08145" stroke-linecap="round" stroke-linejoin="round"/>
<path d="M1314.21 281.346L1439.1 74.1543L1563.42 281.346L1439.1 354.884L1314.21 281.346Z" stroke="#DAE8FF" stroke-width="1.08145" stroke-linecap="round" stroke-linejoin="round"/>
<path d="M1439.1 380.565L1314.21 304.108L1439.1 481.534L1563.42 304.108L1439.1 380.565Z" stroke="#DAE8FF" stroke-width="1.08145" stroke-linecap="round" stroke-linejoin="round"/>
<path d="M1314.21 846.733L1439.1 639.541L1563.42 846.733L1439.1 920.272L1314.21 846.733Z" stroke="#DAE8FF" stroke-width="1.08145" stroke-linecap="round" stroke-linejoin="round"/>
<path d="M306.207 0.206185L431.105 -206.986L555.42 0.206185L431.105 73.7446L306.207 0.206185Z" stroke="#DAE8FF" stroke-width="1.08145" stroke-linecap="round" stroke-linejoin="round"/>
<path d="M431.105 99.4249L306.207 22.9683L431.105 200.394L555.42 22.9683L431.105 99.4249Z" stroke="#DAE8FF" stroke-width="1.08145" stroke-linecap="round" stroke-linejoin="round"/>
<path d="M881.889 0.206185L1006.79 -206.986L1131.1 0.206185L1006.79 73.7446L881.889 0.206185Z" stroke="#DAE8FF" stroke-width="1.08145" stroke-linecap="round" stroke-linejoin="round"/>
<path d="M1006.79 99.4249L881.889 22.9683L1006.79 200.394L1131.1 22.9683L1006.79 99.4249Z" stroke="#DAE8FF" stroke-width="1.08145" stroke-linecap="round" stroke-linejoin="round"/>
<path d="M18.5084 0.206185L143.406 -206.986L267.722 0.206185L143.406 73.7446L18.5084 0.206185Z" stroke="#DAE8FF" stroke-width="1.08145" stroke-linecap="round" stroke-linejoin="round"/>
<path d="M143.406 99.4249L18.5084 22.9683L143.406 200.394L267.722 22.9683L143.406 99.4249Z" stroke="#DAE8FF" stroke-width="1.08145" stroke-linecap="round" stroke-linejoin="round"/>
<path d="M593.903 0.206185L718.802 -206.986L843.117 0.206185L718.802 73.7446L593.903 0.206185Z" stroke="#DAE8FF" stroke-width="1.08145" stroke-linecap="round" stroke-linejoin="round"/>
<path d="M718.802 99.4249L593.903 22.9683L718.802 200.394L843.117 22.9683L718.802 99.4249Z" stroke="#DAE8FF" stroke-width="1.08145" stroke-linecap="round" stroke-linejoin="round"/>
<path d="M1169.58 0.206185L1294.49 -206.986L1418.8 0.206185L1294.49 73.7446L1169.58 0.206185Z" stroke="#DAE8FF" stroke-width="1.08145" stroke-linecap="round" stroke-linejoin="round"/>
<path d="M1294.49 99.4249L1169.58 22.9683L1294.49 200.394L1418.8 22.9683L1294.49 99.4249Z" stroke="#DAE8FF" stroke-width="1.08145" stroke-linecap="round" stroke-linejoin="round"/>
<path d="M306.207 567.054L431.105 359.862L555.42 567.054L431.105 640.592L306.207 567.054Z" stroke="#DAE8FF" stroke-width="1.08145" stroke-linecap="round" stroke-linejoin="round"/>
<path d="M431.105 666.272L306.207 589.816L431.105 767.242L555.42 589.816L431.105 666.272Z" stroke="#DAE8FF" stroke-width="1.08145" stroke-linecap="round" stroke-linejoin="round"/>
<path d="M18.5084 567.054L143.406 359.862L267.722 567.054L143.406 640.592L18.5084 567.054Z" stroke="#DAE8FF" stroke-width="1.08145" stroke-linecap="round" stroke-linejoin="round"/>
<path d="M143.406 666.272L18.5084 589.816L143.406 767.242L267.722 589.816L143.406 666.272Z" stroke="#DAE8FF" stroke-width="1.08145" stroke-linecap="round" stroke-linejoin="round"/>
<path d="M881.889 567.054L1006.79 359.862L1131.1 567.054L1006.79 640.592L881.889 567.054Z" stroke="#DAE8FF" stroke-width="1.08145" stroke-linecap="round" stroke-linejoin="round"/>
<path d="M1006.79 666.272L881.889 589.816L1006.79 767.242L1131.1 589.816L1006.79 666.272Z" stroke="#DAE8FF" stroke-width="1.08145" stroke-linecap="round" stroke-linejoin="round"/>
<path d="M593.903 567.054L718.802 359.862L843.117 567.054L718.802 640.592L593.903 567.054Z" stroke="#DAE8FF" stroke-width="1.08145" stroke-linecap="round" stroke-linejoin="round"/>
<path d="M718.802 666.272L593.903 589.816L718.802 767.242L843.117 589.816L718.802 666.272Z" stroke="#DAE8FF" stroke-width="1.08145" stroke-linecap="round" stroke-linejoin="round"/>
<path d="M1169.58 567.054L1294.49 359.862L1418.8 567.054L1294.49 640.592L1169.58 567.054Z" stroke="#DAE8FF" stroke-width="1.08145" stroke-linecap="round" stroke-linejoin="round"/>
<path d="M1294.49 666.272L1169.58 589.816L1294.49 767.242L1418.8 589.816L1294.49 666.272Z" stroke="#DAE8FF" stroke-width="1.08145" stroke-linecap="round" stroke-linejoin="round"/>
</g>
<rect x="-0.470398" width="1440" height="391" fill="url(#paint0_linear_402_321)"/>
</g>
<defs>
<linearGradient id="paint0_linear_402_321" x1="719.53" y1="0" x2="719.53" y2="391" gradientUnits="userSpaceOnUse">
<stop stop-color="#EFF4FF"/>
<stop offset="1" stop-color="#F9FBFF" stop-opacity="0"/>
</linearGradient>
<clipPath id="clip0_402_321">
<rect width="1440" height="687" fill="white"/>
</clipPath>
</defs>
</svg>
