<svg width="31" height="30" viewBox="0 0 31 30" fill="none" xmlns="http://www.w3.org/2000/svg">
<g id="Group 225">
<path id="Vector" d="M12.2476 20.6907L11.0385 24.795L9.82945 20.6907C9.51695 19.6306 8.93103 18.6651 8.127 17.8854C7.32296 17.1058 6.32732 16.5376 5.23403 16.2346L1 15.0607L5.23254 13.8882C6.32584 13.5852 7.32148 13.0171 8.12551 12.2374C8.92955 11.4577 9.51546 10.4922 9.82796 9.43208L11.0385 5.32635L12.2476 9.43064C12.5601 10.4908 13.146 11.4563 13.9501 12.2359C14.7541 13.0156 15.7497 13.5838 16.843 13.8868L21.0771 15.0607L16.8445 16.2331C15.7512 16.5362 14.7556 17.1043 13.9516 17.884C13.1475 18.6637 12.5616 19.6291 12.2491 20.6893L12.2476 20.6907Z" fill="#93BBFB" stroke="black" stroke-width="1.10132" stroke-linecap="round" stroke-linejoin="round"/>
<path id="Vector_2" d="M24.423 11.8159L24.8082 10.3233C25.0288 9.46738 25.4852 8.68567 26.1286 8.06181C26.7719 7.43794 27.5781 6.99539 28.4608 6.78147L30 6.40796L28.4608 6.03445C27.5781 5.82054 26.7719 5.37798 26.1286 4.75412C25.4852 4.13026 25.0288 3.34855 24.8082 2.4926L24.423 1L24.0378 2.4926C23.8174 3.34837 23.3612 4.12996 22.7181 4.7538C22.075 5.37765 21.2692 5.82031 20.3868 6.03445L18.8461 6.40796L20.3868 6.78147C21.2692 6.99562 22.075 7.43828 22.7181 8.06212C23.3612 8.68597 23.8174 9.46756 24.0378 10.3233L24.423 11.8159Z" fill="#34EEB6" stroke="black" stroke-width="1.10132" stroke-linecap="round" stroke-linejoin="round"/>
<path id="Vector_3" d="M22.1925 29.1214L22.7784 27.4154C22.9427 26.9375 23.2194 26.5033 23.5868 26.1471C23.9541 25.7909 24.4019 25.5226 24.8947 25.3633L26.654 24.7951L24.8947 24.2269C24.4019 24.0676 23.9541 23.7992 23.5868 23.443C23.2194 23.0868 22.9427 22.6526 22.7784 22.1747L22.1925 20.4687L21.6065 22.1747C21.4422 22.6526 21.1655 23.0868 20.7982 23.443C20.4308 23.7992 19.9831 24.0676 19.4902 24.2269L17.7309 24.7951L19.4902 25.3633C19.9831 25.5226 20.4308 25.7909 20.7982 26.1471C21.1655 26.5033 21.4422 26.9375 21.6065 27.4154L22.1925 29.1214Z" fill="#DAE8FF" stroke="black" stroke-width="1.10132" stroke-linecap="round" stroke-linejoin="round"/>
</g>
</svg>
